{"title":"Iron Man 2013 R6 LINE NEW AUDIO AAC x264-SSDD Version 2","uid":8467784,"size":630692464,"categoryP":"video","categoryS":"movies","magnet":"?xt=urn:btih:a6c85a44591071a637ee5a2c872420d67c52d2f6&amp;dn=Iron+Man+2013+R6+LINE+NEW+AUDIO+AAC+x264-SSDD+Version+2&amp;tr=udp%3A%2F%2Ftracker.openbittorrent.com%3A80&amp;tr=udp%3A%2F%2Fopen.demonii.com%3A1337&amp;tr=udp%3A%2F%2Ftracker.coppersurfer.tk%3A6969&amp;tr=udp%3A%2F%2Fexodus.desync.com%3A6969","seeders":0,"leechers":0,"uploader":"R0thschild","files":2,"time":1368404869,"description":"--------------------------------------------\n &lt;a href=&quot;\nhttp://publichash.com/index.php?page=torrent-details&amp;id=a6c85a44591071a637ee5a2c872420d67c52d2f6&quot; rel=&quot;nofollow&quot; target=&quot;_NEW&quot;&gt;\nhttp://publichash.com/index.php?page=torrent-details&amp;id=a6c85a44591071a637ee5a2c872420d67c52d2f6&lt;/a&gt;\n\nIMDB Link - http://www.imdb.com/title/tt1300854/\n\nSource - Iron Man 2013 R6 LINE Xvid NEW AUDIO READ NFO UnKnOwN\n\nNOTES - Enjoy. This is a version 2 with better audio from the Unknown source mentioned above.\n\nGeneral\nComplete name                            : Iron Man 2013 R6 LINE NEW AUDIO AAC x264-SSDD Version 2.mp4\nFormat                                   : MPEG-4\nFormat profile                           : Base Media\nCodec ID                                 : isom\nFile size                                : 600 MiB\nDuration                                 : 2h 2mn\nOverall bit rate mode                    : Variable\nOverall bit rate                         : 688 Kbps\n\nVideo\nID                                       : 1\nFormat                                   : AVC\nFormat/Info                              : Advanced Video Codec\nFormat profile                           : &lt;a class=&quot;__cf_email__&quot; href=&quot;/cdn-cgi/l/email-protection&quot; data-cfemail=&quot;4c04252b240c0078627d&quot;&gt;[email&amp;#160;protected]&lt;/a&gt;&lt;script data-cfhash='f9e31' type=&quot;text/javascript&quot;&gt;\n/* &lt;![CDATA[ */!function(){try{var t=&quot;currentScript&quot;in document?document.currentScript:function(){for(var t=document.getElementsByTagName(&quot;script&quot;),e=t.length;e--;)if(t[e].getAttribute(&quot;data-cfhash&quot;))return t[e]}();if(t&amp;&amp;t.previousSibling){var e,r,n,i,c=t.previousSibling,a=c.getAttribute(&quot;data-cfemail&quot;);if(a){for(e=&quot;&quot;,r=parseInt(a.substr(0,2),16),n=2;a.length-n;n+=2)i=parseInt(a.substr(n,2),16)^r,e+=String.fromCharCode(i);e=document.createTextNode(e),c.parentNode.replaceChild(e,c)}t.parentNode.removeChild(t);}}catch(u){}}()/* ]]&gt; */&lt;/script&gt;\nFormat settings, CABAC                   : Yes\nFormat settings, ReFrames                : 4 frames\nCodec ID                                 : avc1\nCodec ID/Info                            : Advanced Video Coding\nDuration                                 : 2h 2mn\nBit rate                                 : 620 Kbps\nMaximum bit rate                         : 2 019 Kbps\nWidth                                    : 700 pixels\nHeight                                   : 294 pixels\nDisplay aspect ratio                     : 2.40:1\nFrame rate mode                          : Constant\nFrame rate                               : 29.970 fps\nColor space                              : YUV\nChroma subsampling                       : 4:2:0\nBit depth                                : 8 bits\nScan type                                : Progressive\nBits/(Pixel*Frame)                       : 0.101\nStream size                              : 542 MiB (90%)\nWriting library                          : x264 core 130 r2273 b3065e6\n\nAudio\nID                                       : 2\nFormat                                   : AAC\nFormat/Info                              : Advanced Audio Codec\nFormat profile                           : LC\nCodec ID                                 : 40\nDuration                                 : 2h 2mn\nBit rate mode                            : Variable\nBit rate                                 : 64.0 Kbps\nMaximum bit rate                         : 67.6 Kbps\nChannel(s)                               : 2 channels\nChannel positions                        : Front: L R\nSampling rate                            : 48.0 KHz\nCompression mode                         : Lossy\nStream size                              : 55.9 MiB (9%)\n\n--------------------------------------------","torrent":{"xt":"urn:btih:a6c85a44591071a637ee5a2c872420d67c52d2f6","amp;dn":"Iron+Man+2013+R6+LINE+NEW+AUDIO+AAC+x264-SSDD+Version+2","amp;tr":["udp%3A%2F%2Ftracker.openbittorrent.com%3A80","udp%3A%2F%2Fopen.demonii.com%3A1337","udp%3A%2F%2Ftracker.coppersurfer.tk%3A6969","udp%3A%2F%2Fexodus.desync.com%3A6969"],"infoHash":"a6c85a44591071a637ee5a2c872420d67c52d2f6","infoHashBuffer":{"type":"Buffer","data":[166,200,90,68,89,16,113,166,55,238,90,44,135,36,32,214,124,82,210,246]},"announce":[],"urlList":[]}}